<?xml version="1.0" encoding="utf-8"?>
<!-- Generator: Adobe Illustrator 16.0.0, SVG Export Plug-In . SVG Version: 6.00 Build 0)  -->
<!DOCTYPE svg PUBLIC "-//W3C//DTD SVG 1.1//EN" "http://www.w3.org/Graphics/SVG/1.1/DTD/svg11.dtd">
<svg version="1.1" id="Calque_1" xmlns="http://www.w3.org/2000/svg" xmlns:xlink="http://www.w3.org/1999/xlink" x="0px" y="0px"
	 width="160.203px" height="177.979px" viewBox="0 0 160.203 177.979" enable-background="new 0 0 160.203 177.979"
	 xml:space="preserve">
<g>
	<path fill="#E85311" d="M84.009,4.792c0.654,0.218-0.217,0.654-0.217,0.871c1.088,0.436,0.652-0.653,1.307-0.653
		c0,0.436-0.219,1.089,0.436,0.871c0.219,0.871-0.871,1.089,0,1.307c-0.219,0.871,0.654,0.654,1.09,0.654
		c0,2.613,0.217,4.573,0,6.969c-0.219-0.217-0.219,0.218,0,0c-0.219,3.921-0.871,8.713-1.09,11.98c-0.436,0-0.654,0.218-0.871,0.218
		c0,0.218,0,0.436,0.217,0.436c-0.436,1.524-0.217,2.178-0.652,3.485c-0.219,0.217-0.219,0.217,0,0.217
		c0,2.832-1.745,5.228-1.526,7.842c-0.219,0.653-0.871-0.436-0.871,0.435h-0.219c0,0.436,0.219,0.218,0.219,0h0.436
		c0,2.178-0.871,2.832-0.871,5.01c-0.436,0.436-1.088,0.436-1.088,0.871c-0.436,0-0.219-0.435-0.873-0.435
		c0.438-1.525,1.307-2.832,0.873-4.356c-0.654,0-0.654,0.435-0.654,0.871c-0.219,1.089-1.09,1.524-0.436,2.396
		c-0.654,0.217-0.871,0.653-0.654,1.306c-0.217,0.218-0.652,0.436-1.088,0.218c0,0.436,0,0.653,0.217,0.653
		c-0.217,0.654-1.523,0-1.523,0.654c0.217,0.654,1.088,0.654,1.088,1.307c-0.652,0.435-0.871-1.307-0.871-0.218H75.95
		c0,0.436,0.654,0.871,0.436,0c0.219,0.871,0.436,0.653,1.09,0.653c0,0.218,0,0.436-0.219,0.436c-0.652-0.653-0.871,0.872,0,0
		c0,1.089-0.436,1.307-0.871,1.525c0-0.218,0-0.653,0.219-0.871c-0.654,0-0.436,0.435-0.871,0c-0.654,1.306-1.09,1.524-1.309,2.614
		c0.438,0.435,0.873-0.218,1.09-0.872c0.436,0.218,0,1.089,0.654,0.872c0.436,0.653-0.436,1.524-0.654,1.306
		c-0.652,0,0-0.653,0.219-0.871c-1.525-0.218-1.961,2.178-2.396,3.485c-0.652,0.435-0.652,1.089-0.652,1.743
		c0.869,0.217,0.652-0.872,0.652-1.743c0.871,1.525-0.436,2.614-0.652,3.703c-0.871,0-0.219-0.654,0-1.089
		c-0.871,0-0.871,1.089-0.654,1.306c-0.436,0.219-0.436,0.436-0.436,0.872c0.219,0,0.436-0.436,0.436-0.872
		c0.219,1.09-0.217,3.486-1.525,3.703c-0.436,1.525-0.871,4.574-2.395,5.446c-0.219,1.742-1.09,2.831-1.961,3.702
		c0,0.654,1.09,0,0.871,0.654c-0.652-0.436-0.652,0.217-0.871,0.435c0,0,0-0.218-0.219-0.435c-0.217,0.435-0.652,0.654-0.652,1.089
		c1.09-0.218-0.654,1.96,0.871,1.307c-2.832,2.396-6.1,2.613-10.236,2.178c-1.09,0-1.525-0.218-3.051-0.436
		c0.437-0.435,0-0.435-0.652-0.435c0,0-0.219,0-0.436-0.218c0-0.218-0.437-0.218-0.437,0c-2.613-0.872-4.574-2.831-5.445-5.663
		c-2.178-9.148,0-20.91-0.871-28.316c-1.307,1.307-1.96,3.268-2.614,5.01c0.436,0.653,0.871,0.653,0.654,1.525
		c-0.218-0.218-0.436-0.436-0.871-0.654c-0.436,0.218-0.654,0.436-0.654,0.872c0,0.653,0.654-0.218,0.871,0.217
		c-0.217,0.436-0.871,0.871-1.089,0.436c-2.178,3.485-3.267,7.406-5.009,11.326h-0.654c0.436,0.436-0.436,0.871,0.436,0.871
		c-0.872,0.436-1.525,1.525-1.089,2.396c-0.872,1.089-1.307,1.743-1.96,3.049c-1.09-0.653-0.654,1.743-1.743,1.525
		c0-0.435-0.436-0.435-0.218-1.089c0.218-0.871,0.871-2.396,1.525-2.396c0-0.436-0.218-1.307,0.436-0.871
		c-0.436-1.089,0.435-2.614,1.306-2.832c-0.653-1.089,1.089-1.742,0.436-3.267c1.089-0.218,1.307-1.306,1.307-3.049
		c0.218,0.435,0.435,0.435,0.871,0v-2.396c0.871,0,0.871-1.089,1.743-1.307c0-0.654-0.218-0.871-0.218-1.525
		c0.435,0.654,0.871-0.653,0.435-1.088c0.218-0.218,0.872,0,0.654-0.654c0-0.218-0.871,0.218-0.654,0.654
		c-1.307,0.435-0.653,2.613-2.396,2.178c0,0.435,0.654,0.218,0.872,0.435c-0.872,1.96-1.743,3.703-2.396,5.446
		c-0.436,0-0.218-0.436-0.436-0.654h0.436c0,0-0.218,0-0.436-0.218c0-0.218-0.218,0-0.218,0h-0.435c0,0.218,0.217,0.218,0.435,0.218
		v1.089c-0.435,0.218-0.871,0-0.871,0.218c-0.218,0.435,0.871,0,0.871-0.218h0.654c-0.218,0.436-0.436,0.653-0.654,0.653
		c0-0.217-0.435-0.217-0.435,0H33.26c0,0.654,0.654,0.654,0.654,0h0.435c-0.218,1.089-0.653,1.961-1.306,2.396V60.77
		c0.217,0,0.217-0.436,0-0.653c-0.436,0.217,0,0.435,0,0.653c-0.218,0.218-0.218,0.435,0,0.435v0.654
		c-0.218,0-0.436-0.218-0.654-0.654c-0.436,0.436-0.871,1.089-0.218,1.307c-0.436,0.872-0.436,0.872-1.089,0.872
		c0,0.435,0.218,0.435,0,0.435c0,0.436,0.218,0.436,0.653,0.218c0.218,1.089-0.435,0.871-0.435,1.524c-0.218,0-0.218,0-0.218-0.435
		c-0.871,0.654-0.218,1.307-0.218,2.178c-0.871,0.218,0-0.218-0.217-0.871c-0.872,0.653-1.961,2.396-1.09,3.267
		c-0.871-0.218-1.089,0.653-1.306,1.525c-0.436,0-0.436,0.218-0.436,0.436c0.436,0.217,0.436,0,0.436-0.436
		c0.217,0,0.435-0.436,0.653-0.872c0.653,1.09-1.525,2.396-0.218,3.267c-0.218,0.437-0.218,0.872-0.871,0.654
		c0.218,0.436,0.653,0.654,0.871,0.871c0,0.436-0.218,0.436-0.218,0.654c-0.435,0.435-0.435,0.871-0.653,1.089H26.29
		c0-0.218,0.436,0,0.436-0.436c-0.654,0.218-2.178,0-3.05,0.436c-1.96-0.436-5.88,0.653-6.969-1.307
		c-6.753,0.218-6.753-9.148-7.624-15.683c0.653-1.524,0.436-5.445,0.653-6.316c0.436-1.089,0-2.614,0.218-3.92
		c0-1.308,0.436-2.396,0.654-3.921c0.218-1.525,0.653-4.356,0.436-4.574c2.177-9.149,3.702-19.385,6.752-28.098
		c0.217-0.654-0.654-0.218-0.436-1.089c1.525-1.089,2.614-2.832,4.792-1.742c0.871,0.653,1.742,2.177,2.178,2.613h1.307
		c1.089,2.178,3.702,3.268,3.92,5.446h-0.653c0.218,2.395-0.871,3.485-0.653,5.009c-0.436,0.872-1.09,0.872-1.525,0.872v0.871
		c1.525-0.871,0.435,2.613-0.218,3.267c-0.218-0.218-0.218,0.218,0,0c0.435,1.525-0.653,1.96-0.436,3.485
		c-1.088,0.436-0.435,2.396-1.088,3.485c-0.436,0-0.218-0.436-0.218-0.872c-0.654,1.743-0.872,2.179-1.307,3.704
		c0.653,0.217,0.435-0.654,1.089-0.218c-1.089,0.435-2.178,2.396-1.307,2.831c-0.653,0.871-0.871,2.178-0.871,3.703
		c-0.436,0.218-0.436,0.436-0.872,0.218c0.872,1.089,0.654,2.396,0,3.049c-0.218,0-0.218-0.435-0.435-0.653
		c0,0.435,0,0.871,0.435,0.653c0,0.436,0,0.653,0.436,0.436c-1.307,1.742-0.218,4.574-1.525,5.009c0.654,1.961,0.218,2.832,0,4.357
		c-0.653,0.218-0.435-0.218-1.089-0.218c0.218,0.436,0.436,0.653,1.089,0.653c0,1.743-0.217,1.96,0,3.267
		c-0.653,0.872,0.218,1.743-0.217,2.614c0.435-0.435,0.653-1.525,1.524-1.742c6.752-15.9,13.722-31.583,23.742-44.434
		c0.871-0.218,1.306-0.653,1.742-1.524c1.089,0.217,1.525-0.218,1.96-0.872c0.654,0.436,0.218,1.96,1.743,1.307
		c0,0.436-0.217,0.653-0.217,0.653c1.306-0.217,1.306,1.525,2.396,0.654c0,1.089,0.871,1.307,1.742,1.307
		c1.09,1.306,1.742,2.831,3.486,3.049c0,0.436-0.438,0.218-0.438,0.436c0.438,0.435,0.871,0.871,1.742,0.653
		c0.436,1.307,0.654,3.703-0.217,4.574c-0.436,0-0.219-0.653-0.654-0.653c-1.088,2.831-1.307,7.187-1.525,10.891
		c-0.871,0-0.434-0.654-0.217-1.308c-0.217,0-0.436,0-0.436-0.217c-0.652,0-0.436,0.435-0.871,0.435
		c1.09,0.654-0.436,0.436-0.871,0.654c0,1.089,0.654,2.613-0.436,2.832c0.436,1.524,0.436,3.702-0.436,4.573
		c0.218,0.654,0.218,1.09,0.654,1.525c-1.09,7.841-1.308,11.762-0.219,19.385c0.436,0,0-1.089,0.436-1.307
		c0.654,1.09,0,4.357,0.654,4.357c0.652,0.218-0.219,0.871-0.219,0.871c0,0.435,0.219,0.435,0.219,0.653
		c0.217,0,0.436,0,0.436-0.218c4.355-3.92,5.662-10.672,8.711-16.118c0.871-3.92,3.049-8.277,3.703-13.286h0.436
		c1.09-6.752,3.703-13.287,3.922-19.167c0-0.218,0.217-0.436,0.652-0.436c0.436-5.227,0.871-10.237,1.307-16.118
		c0.871-0.653,0.436-2.832,1.307-3.703c0.219,0.218,0.219,0.218,0.219,0.436c0.436,0,0-0.872,0.217-1.307
		C77.257,1.307,76.821,0.436,77.04,0c1.523,0.218,1.742,1.961,3.268,1.525c-0.219,1.525-0.219,1.307-0.219,3.05
		c0.219,0,0.219,0,0.219-0.436c0.217,0.218,0.217,0.436,0.217,0.653c0.217,0,0.217,0,0.436-0.217c0.219,0,0-0.872,0.219-1.525
		c0.217-0.654,0.217,0.871,0.217,1.089c0.871,0.218,0.654-0.654,0.654-1.525c0.652,0.871,1.088,1.089,1.959,1.307
		C84.009,4.575,83.573,4.575,84.009,4.792C83.573,5.01,84.009,5.228,84.009,4.792 M19.103,49.879c0.217,0,0.435,0,0.435-0.217
		C19.32,49.879,19.103,49.879,19.103,49.879 M19.32,62.73c0.218,0,0.436,0,0.436-0.218C19.538,62.73,19.32,62.73,19.32,62.73
		 M20.192,50.315C20.409,50.315,20.192,50.097,20.192,50.315C19.756,50.533,20.192,50.75,20.192,50.315 M20.627,46.177
		c-0.218,0.653,0.218,1.089,0.436,0.435C20.845,46.612,20.845,46.394,20.627,46.177 M21.28,42.256c0.218,0,0.436,0,0.436-0.218
		C21.498,42.256,21.28,42.256,21.28,42.256 M21.28,42.691c0.218,0,0.436,0,0.436-0.217C21.498,42.691,21.28,42.691,21.28,42.691
		 M24.33,39.206c0,0.654,0,1.308-0.654,1.089c-0.435-0.435,0.436-0.435,0-1.306C23.894,38.989,24.112,39.206,24.33,39.206
		 M25.855,77.106c-0.218,0.218-0.436,0.218-0.436,0.218C25.637,77.324,25.855,77.324,25.855,77.106 M26.943,66.433
		c-0.217,0.436-1.306,0.871-0.217,1.089C26.726,67.304,27.597,66.651,26.943,66.433 M28.033,60.117
		c-0.218,0-0.436-0.219-0.654-0.219c0.218,0.654-1.089,0.654-0.218,0.872C27.161,60.334,28.033,60.77,28.033,60.117 M27.161,63.166
		C27.379,63.166,27.161,62.948,27.161,63.166C26.726,63.384,27.161,63.601,27.161,63.166 M27.379,65.126
		c0.218,0,0.436,0,0.436-0.218C27.597,65.126,27.379,65.126,27.379,65.126 M27.597,62.512c0.436,0.436,0.871-0.653,0.436-0.871
		c0,0.218-0.218,0.218-0.436,0.218c-0.218-0.218-0.218,0.218,0,0V62.512z M28.468,59.245c-0.217,0-0.435-0.218-0.653-0.218
		c0,0.436-0.218,0.654-0.218,0.654C28.033,59.681,28.251,59.681,28.468,59.245 M28.033,68.611c-0.218,0.436-0.436,0.654-0.436,0.871
		C28.033,69.7,28.468,68.829,28.033,68.611 M28.033,71.878h-0.436v0.436h0.436V71.878z M28.033,50.968c0.218,0,0.218,0.436,0.435,0
		C28.468,50.75,28.033,50.75,28.033,50.968 M28.468,60.334c0,0.436-0.653,1.089,0,1.089c0.218-0.218,0.654-0.435,0.218-1.089
		c0.653,0.218-0.218-1.089-0.218-0.436c0.218,0.219,0.218,0.436,0.218,0.436H28.468z M28.686,75.799c0,0.217-0.218,0.435-0.218,0
		H28.686z M28.904,75.581c0,0.218,0,0.435-0.218,0.218C28.686,75.799,28.686,75.581,28.904,75.581 M28.904,74.057
		c0.218-1.961,1.743-2.614,1.96-4.792c0.218,0,0.218,0.217,0.436,0.217C30.647,71.878,30.429,73.185,28.904,74.057 M29.339,60.334
		c0,0.654-0.435,0.871,0.218,0.871C29.775,61.205,29.993,60.334,29.339,60.334 M30.429,57.067c0.218-0.654-0.654-1.089-0.872-0.654
		c0.436,0.218,0,0.436,0,0.654C30.211,57.285,29.993,56.849,30.429,57.067 M29.775,68.175c0-0.218,0.436-0.218,0.436-0.653
		C30.647,67.74,30.211,68.393,29.775,68.175 M30.864,56.631c0.218,0,0.436,0,0.436-0.218C31.082,56.631,30.864,56.631,30.864,56.631
		 M30.864,64.255H31.3v0.436h-0.436V64.255z M31.082,54.453c0.653,0.218,0.871-0.653,0.218-0.871
		C31.3,54.235,31.082,54.235,31.082,54.453C30.647,54.671,31.082,54.889,31.082,54.453 M32.389,50.097c-0.218,0-0.436-0.218-0.654,0
		c0.654,0.218-0.217,0.653,0,0.871C32.171,51.186,32.171,50.533,32.389,50.097 M32.825,50.533c0.218,0,0.435,0,0.435-0.218
		C33.043,50.533,32.825,50.533,32.825,50.533 M33.914,48.572h-0.436v0.436h0.436V48.572z M34.567,56.196
		c-0.218-0.218-1.089-0.218-1.089,0.217C33.696,56.413,34.567,56.849,34.567,56.196 M34.131,46.177c0.218,0,0.436,0,0.436-0.436
		c-1.089,0-1.089,1.742-0.218,0.871C34.131,46.612,34.131,46.612,34.131,46.177 M33.914,47.701h0.435
		c0.218-0.218,0.218-0.435-0.218-0.653c0,0.218,0,0.435-0.217,0.218V47.701z M34.349,56.849h0.218v0.218h-0.218V56.849z
		 M34.785,45.523c0.218-0.218,0.435,0,0.653,0c0-0.436-0.435-0.218-0.435-0.653c0.653,0-0.218-0.872,0,0
		C34.349,44.652,34.349,45.741,34.785,45.523 M35.003,46.394C35.656,46.394,34.785,45.523,35.003,46.394
		C34.567,46.612,35.003,46.83,35.003,46.394 M35.656,43.345C36.527,43.563,35.656,42.691,35.656,43.345
		C35.22,43.563,35.656,43.781,35.656,43.345 M36.527,41.82C36.745,41.82,36.527,41.602,36.527,41.82
		C36.092,42.038,36.527,42.256,36.527,41.82 M38.27,45.741c0,0.436-0.436,0.436-0.436,0.653
		C38.27,46.612,38.706,45.958,38.27,45.741 M38.27,48.79h-0.436v0.436h0.436V48.79z M40.012,43.127
		c-0.435,0-0.871,0.871-0.435,0.871C39.577,43.781,40.23,43.781,40.012,43.127 M40.012,46.83c-0.217,0.436-0.653,0.436-0.435,1.089
		C40.448,48.354,40.666,47.048,40.012,46.83 M41.101,45.305c0,0.436-0.435,0.218-0.653,0c0.218,0.872-0.218,1.089-0.436,1.307
		C40.883,47.048,41.755,45.958,41.101,45.305 M41.319,50.968c1.089,0-1.089,1.525,0,0.218V50.968z M41.101,41.385
		c0.218,0,0.436,0,0.436-0.218C41.319,41.385,41.101,41.385,41.101,41.385 M41.755,43.998c0.218,0,0.653,0.218,0.653-0.217
		C42.191,43.998,41.755,43.781,41.755,43.998 M42.844,42.909c-0.436,0.218-0.871,0.218-0.871,0.436
		C42.408,43.345,43.062,43.563,42.844,42.909 M43.715,39.86c0.218,0,0.218,0.218,0.218,0.218c0.436,0.217,0.436,0,0.436-0.436
		c0.218,0,0-0.218,0,0C43.933,39.642,43.715,39.642,43.715,39.86 M50.686,51.186H50.25c0,0.218-0.218,0.435-0.218,0.435
		C50.25,51.621,50.686,51.84,50.686,51.186 M50.25,52.493c0.436,0,0.652,0.218,0.871,0.218C51.338,52.275,50.25,52.275,50.25,52.493
		 M50.25,55.542c0.217,0,0.436,0,0.436-0.217C50.467,55.542,50.25,55.542,50.25,55.542 M50.25,63.601c0.217,0,0.436,0,0.436-0.217
		C50.467,63.601,50.25,63.601,50.25,63.601 M51.121,63.819c0.217,0,0.435,0,0.435-0.218C51.338,63.819,51.121,63.819,51.121,63.819
		 M51.774,76.888v0.218c-0.219,0-0.437,0-0.437-0.218H51.774z M51.556,55.542C51.121,55.76,51.556,55.978,51.556,55.542
		c0.219,0,0.219-0.217,0.219-0.435c0.217,0,0-0.218,0,0C51.556,55.325,51.556,55.542,51.556,55.542 M51.774,53.364
		c0,0.436,0,0.871,0.436,0.653C52.21,53.8,51.991,53.582,51.774,53.364 M52.21,77.106c0,0.218-0.436,0.435-0.436,0H52.21z
		 M51.991,44.216c0.219,0,0.437,0,0.437-0.218C52.21,44.216,51.991,44.216,51.991,44.216 M51.991,47.919
		c0.219,0,0.437,0,0.437-0.218C52.21,47.919,51.991,47.919,51.991,47.919 M52.646,42.038H52.21v0.436h0.436V42.038z M52.646,64.473
		H52.21v0.436h0.436V64.473z M52.428,60.77c0.218,0,0.435,0,0.435-0.218C52.646,60.77,52.428,60.77,52.428,60.77 M52.646,45.305
		v0.436c0.436,0.217,0.436,0,0.436-0.436c0.652,0-0.219-0.871,0,0H52.646z M54.823,67.086c-0.436,0.218-0.871,0-0.653,0.436
		C54.606,67.74,54.606,67.522,54.823,67.086 M54.606,61.859c0.217,0.653,1.088,2.396-0.437,1.96c0.653-1.96-0.218-2.831,0.437-5.663
		C55.04,58.592,55.04,61.423,54.606,61.859 M54.606,66.651C54.606,65.997,53.733,66.869,54.606,66.651
		C54.606,67.086,54.823,66.651,54.606,66.651 M54.823,68.393h-0.437v0.436h0.437V68.393z M54.823,57.938
		c-0.653-0.653-0.436-1.089,0-2.178C55.478,56.413,54.823,57.503,54.823,57.938 M55.04,52.275c-0.652,0-0.434-0.654-0.434-1.307
		C55.259,50.968,55.259,52.275,55.04,52.275 M54.606,54.453v-1.524C55.259,52.711,55.259,54.889,54.606,54.453 M55.04,55.325
		c-0.217,0-0.434-0.218-0.434-0.654C54.823,54.889,55.04,55.107,55.04,55.325 M55.04,36.375c0.438,0.435,0.654-0.653,0.219-0.653
		C55.259,36.157,55.04,36.157,55.04,36.375C54.388,36.593,55.259,37.464,55.04,36.375 M54.823,48.137
		c0.436-0.871-0.217-1.96,0.217-2.832C55.478,45.305,55.478,48.137,54.823,48.137 M55.259,49.444c-0.219,0-0.219,0.218-0.219,0.218
		c-0.217,0-0.217-0.218-0.217-0.654C55.259,49.008,55.259,49.226,55.259,49.444 M55.04,42.909c0.873-0.218,0.438,1.743,0.219,1.961
		C54.388,44.434,55.259,43.345,55.04,42.909 M56.347,39.206c-1.307,0.436-0.217,1.961-0.869,3.268c-0.654-0.872,0-3.703,0-4.574
		C55.913,38.335,55.694,38.553,56.347,39.206 M55.694,33.543c0-0.217,0-0.435-0.436-0.435c0,0.435,0,0.653,0.219,0.653
		C55.478,33.761,55.478,33.543,55.694,33.543 M55.478,32.237C55.478,32.672,55.694,32.237,55.478,32.237v-0.654
		c0.652,0-0.219-0.871,0,0C55.259,31.801,55.259,32.237,55.478,32.237 M56.784,34.632v-0.435c0-0.218-0.438,0-0.438-0.436
		c0.219,0,0.219-0.218,0.219-0.435c-0.871,0.435-0.871,2.396-0.219,3.049c0,0,0.219,0,0.438-0.218c0-0.653,0.217-0.435,0-1.307
		C57.001,34.85,56.784,34.632,56.784,34.632 M56.13,31.801c0.217,0,0.436,0,0.436-0.218C56.347,31.801,56.13,31.801,56.13,31.801
		 M56.565,48.572c-0.219,0.218-0.436,0.218-0.436,0.218C56.347,48.79,56.565,48.79,56.565,48.572 M56.784,34.85v-0.218
		C56.565,34.85,56.565,34.85,56.784,34.85 M63.972,67.74c0,0.435-0.654,0.217-0.436,0.653C63.972,68.611,64.407,67.957,63.972,67.74
		 M63.972,76.234h-0.436v0.437h0.436V76.234z M65.278,75.799c-0.217,0-0.217,0-0.217-0.436H64.19c0,0.436-0.219,0.653-0.219,0.653
		C64.19,76.452,65.062,76.234,65.278,75.799 M65.714,64.037c0,0.436-0.219,0.653-0.219,0.871c-0.871,1.089-0.652,1.307-1.305,2.178
		c1.088,0.218,0.652-1.089,1.523-1.306c-0.219,0.871-0.652,1.306-0.871,1.96c0.652-0.436,1.742-0.654,2.178-1.525
		c-0.871-0.654-0.652,0.871-1.307,0.654c0.654-0.654,0-1.089-0.219-1.961c0.436,0,0.436-0.218,0.436-0.871c0.219,0,0-0.218,0,0
		H65.714z M65.062,67.957c-0.438,0.218-0.871,0-0.654,0.436C64.843,68.611,64.843,68.393,65.062,67.957 M67.456,60.988
		c-0.217,0.217-0.217,0.435-0.217,0.653c-0.219,0.218-0.654,0.436-0.871,0.653c0.652,0.436-0.438,0.654-0.219,1.09
		c0.652,0.217,0.652-0.436,1.09-0.872c0.217,0.654,0.434-0.218,0.652,0.218c0,0.218-0.652,0.871,0,0.871
		c0.219-0.653,0.219-1.524-0.219-2.178c0,0.654-0.434,0.654-0.434,0.218C67.456,61.641,67.456,61.423,67.456,60.988
		c0.217,0,0.217-0.218,0.436-0.218c0,0.653,0.219,0.435,0.219,0c0.652,0-0.219-0.872,0,0h-0.219c0-0.872,0.219-0.872,0.871-0.653
		c0.219-0.872,0.436-1.961,1.307-2.396c-0.652,0.217-0.871-0.218-0.436-1.09c-1.088-0.218-0.652,0.872-0.652,1.307
		C67.673,58.809,67.673,59.681,67.456,60.988 M66.149,65.126c0.219,0,0.436,0,0.436-0.218
		C66.368,65.126,66.149,65.126,66.149,65.126 M66.149,70.571c0.219,0,0.652,0.218,0.652-0.218
		C66.585,70.571,66.149,70.353,66.149,70.571 M66.368,64.69c0.217,0,0.434,0,0.434-0.217C66.585,64.69,66.368,64.69,66.368,64.69
		 M66.585,64.037c0.217,0,0.436,0,0.436-0.218C66.802,64.037,66.585,64.037,66.585,64.037 M67.239,69.482h0.434c0,0.436,0.219,0,0,0
		c0,0-0.217-0.217-0.217-0.435c0.436-0.218,0.654-1.09,1.09-1.743C67.673,67.74,67.239,68.611,67.239,69.482
		C66.585,68.829,66.802,70.353,67.239,69.482 M67.456,64.473c0.217,0,0.217-0.436,0-0.654
		C67.239,64.255,67.239,64.255,67.456,64.473C66.802,64.69,67.673,65.561,67.456,64.473 M69.417,62.512
		c-0.436-0.435,0.217-0.653-0.436-1.089c0,0.436-0.436,0.436-0.436,0.654C68.981,62.294,68.763,62.73,69.417,62.512 M69.198,59.681
		c0.219,0.653-0.436,0.653-0.436,0.871C69.198,60.988,69.634,59.898,69.198,59.681 M68.981,57.938v0.218
		C69.198,58.156,68.981,57.938,68.981,57.938 M69.417,65.997c0-0.217,0-0.653-0.436-0.653v0.436
		C69.198,65.78,69.198,65.997,69.417,65.997 M71.376,51.404c-0.652,0.217-0.652-0.218-1.307-0.218c0,0.654,0.436,0.872,0.436,1.307
		c-0.436,0.218,0,0.436,0,0c0.871,0-0.217,1.742-0.652,0.871c-0.219,0.653,0.871,0.653,0.217,0.871c-0.217-0.218-0.217,0.218,0,0
		c-0.436,0.872-0.217,0.654-0.871,1.09c0.654,0.217-0.436,0.653,0.219,0.871c0.436,0,0.652-0.436,0.652,0.435
		c0.654,0.218,0.436-0.435,0.873-0.871c-0.438,0.218-0.654,0-0.873-0.218c0-0.217,0-0.217,0.219-0.435c0,0.653,0.871,0,0,0
		c0.436-0.436,0.436-1.307,1.088-1.743c-0.652-0.218,0.219-0.653,0-1.306c-0.434,0.217-0.652,0.217-0.652-0.218
		C70.942,51.84,71.376,51.84,71.376,51.404c0.219,0.217,0.219,0.217,0.438,0.217c0.436-0.217,0-0.217,0-0.871
		c-0.438-0.217-1.09,0.436-0.438,0.436V51.404z M69.198,68.829c0.219-0.872,0.654-1.525,1.09-2.396
		C70.724,67.304,69.853,68.611,69.198,68.829 M69.853,55.542c0,0.436,0.217,0.218,0.217,0H69.853z M70.288,63.384
		c0.654,0.217,0.436-0.654,0.654-1.09c0.217,0,0-0.217,0,0C70.288,62.294,70.288,62.948,70.288,63.384 M70.724,70.353
		c-0.654,0-0.436-0.653,0.436-0.653C71.159,70.136,70.505,69.918,70.724,70.353 M70.942,65.997
		c-0.219,0.218-0.438,0.218-0.438,0.218C70.724,66.215,70.942,66.215,70.942,65.997 M70.724,57.067c0.219,0,0.436,0,0.436-0.218
		C70.942,57.067,70.724,57.067,70.724,57.067 M71.159,50.315C71.813,50.097,70.505,49.662,71.159,50.315
		C70.288,50.315,71.159,50.968,71.159,50.315 M71.159,65.561c-0.217-0.435,0.217-0.435,0.217-1.088h0.219
		C71.595,65.126,71.376,65.561,71.159,65.561 M71.813,55.542c0.217-0.435-0.871-0.435-0.654-0.217c0,0.217,0.217,0.217,0.217,0.217
		H71.813z M71.159,54.889c0.217,0,0.436,0,0.436-0.218C71.376,54.889,71.159,54.889,71.159,54.889 M71.159,69.7
		c0,0,0-0.218,0.217-0.435C71.376,69.482,71.376,69.7,71.159,69.7 M71.595,51.186c0-0.218-0.219,0-0.219,0H71.595z M71.595,68.393
		c-0.219-0.436,0-2.396,1.307-2.396C72.466,66.651,72.466,67.957,71.595,68.393 M72.249,63.166c-0.654,0,0-0.654,0-0.872
		C72.901,62.512,72.03,62.948,72.249,63.166 M72.249,62.077c0-0.218,0.217-0.436,0.652-0.436
		C72.685,62.077,72.685,62.294,72.249,62.077 M72.901,57.938h-0.436v0.436h0.436V57.938z M72.685,43.127
		c0.217,0.218,0.436,0.436,0.652,0C73.12,43.127,72.901,42.909,72.685,43.127 M77.476,56.413c-2.396,2.832-2.832,6.971-4.574,9.367
		c1.09-4.575,3.049-8.713,4.574-13.287c0-0.218-0.436-0.218-0.654-0.435c0.436-0.437,0.871,0,0.436-0.872
		c1.307,0.435,0.219-3.267,2.178-3.049v0.871c0.438,0.218,0-0.654,0.219-1.089c0.436,0.218,0,1.089,0.219,1.307
		c-0.438,0.436-0.219,0-0.871,0c0,0.436,0.217,0.653-0.219,0.436c0.871,0.435-0.436,1.959-0.652,1.524v0.654
		c0,0.653,0.434-0.219,0.871,0c-0.438,0.435-0.654,1.089-0.438,1.742c-0.652,0-1.088,0.218-0.871,0.871
		C77.257,55.325,77.257,55.978,77.476,56.413 M73.337,60.988c-0.652-0.218,0.217-0.871,0-1.525
		C74.208,59.681,73.337,60.552,73.337,60.988 M73.772,50.533c0,0,0.219-0.218,0.219-0.654c0.652-0.217-0.654-0.653,0,0
		C73.337,49.662,73.337,50.75,73.772,50.533 M75.079,55.76c0.219,1.089-0.654,1.307-0.654,1.961c-0.434,0-0.217-0.436-0.217-0.872
		C74.425,56.631,73.991,55.76,75.079,55.76 M74.425,41.602v0.654C75.079,42.691,75.079,41.385,74.425,41.602 M74.425,45.958
		c0.219,0,0.219,0.436,0.438,0C74.862,45.741,74.425,45.741,74.425,45.958 M74.425,49.444c0.219,0,0.438,0,0.438-0.218
		C74.644,49.444,74.425,49.444,74.425,49.444 M75.079,35.068h-0.436v0.436h0.436V35.068z M74.644,50.533
		c0.219,0,0.436,0,0.436-0.218C74.862,50.533,74.644,50.533,74.644,50.533 M75.515,44.87c0,0.435,0,0.871,0.436,0.871
		C75.95,45.305,75.95,45.087,75.515,44.87 M76.169,50.533c0.871,0,0.436,1.307,0,1.525V50.533z M76.821,44.87
		c0.654,0,0.871-0.654,0.871-1.525c0.219,0.218,0.219-0.871,0-0.871c0,0.653-0.436,0.653,0,0.871
		C76.604,43.345,77.257,44.652,76.821,44.87 M77.692,48.137c-0.436,0-0.217-0.871-0.217-1.307
		C78.347,46.83,77.257,47.701,77.692,48.137 M78.347,44.434c-0.436,0-1.09,0.653-0.436,0.653
		C77.911,44.87,78.347,45.087,78.347,44.434 M78.13,41.167c-0.438,0.435-0.654,0.871,0,1.089
		C77.911,41.82,78.782,41.385,78.13,41.167 M78.347,42.691c0,0.436-0.871,1.307-0.217,1.525
		C77.911,43.781,78.782,43.127,78.347,42.691 M78.347,39.86c0.436,0,0.654,0,0.871-0.436c-0.436,0-0.436-0.653-0.871-0.871
		C78.347,39.206,78.782,39.642,78.347,39.86C77.692,40.295,78.563,41.167,78.347,39.86 M78.782,35.068h-0.436v0.436h0.436V35.068z
		 M78.563,34.414c0.219,0,0.438,0,0.438-0.217C78.782,34.414,78.563,34.414,78.563,34.414 M79.435,36.157
		c0,0.436-0.434,0.218-0.434,0.436c0.434,0.435-1.09,1.742,0.434,1.525c-0.217-0.654,0.219-0.872,0.654-1.09
		c0,0.436,0,0.436,0.219,0.436c-0.219-0.218,0.217-0.218,0.434-0.436c0,0.436,0.219,0,0,0c0.438-0.218,0.871-0.871,0.871-1.742
		c-1.088-0.218-0.434,1.307-1.305,1.089c0-0.436-0.436-0.218-0.436-0.653c0-0.436,0.436-1.09-0.219-1.308
		c0,0.436-0.219,0.436-0.436,0.436c-0.217,0.654,0.217,0.654,0.217,0.872C78.782,35.722,79.001,36.157,79.435,36.157 M78.782,1.743
		v0.653C79.435,2.832,79.435,1.525,78.782,1.743 M79.435,46.394c0.219,0.654,0.438-0.653,0.873,0
		c-0.219,0.654-0.436,1.089-1.09,1.089c-0.436-0.653,0-0.653,0-1.525C79.435,45.741,79.435,46.177,79.435,46.394 M79.653,36.157
		h-0.219v-0.435C79.653,35.939,79.653,35.939,79.653,36.157 M79.653,33.979c0.219,0,0.219,0.435,0.436,0
		C80.089,33.761,79.653,33.761,79.653,33.979 M80.524,5.881c-0.436,0-1.09,0.654-0.436,0.654
		C80.089,6.317,80.524,6.535,80.524,5.881 M80.089,5.01C80.308,5.01,80.089,4.792,80.089,5.01
		C79.435,5.228,80.308,6.099,80.089,5.01 M79.872,33.108c-0.219,0.871,1.088,0.435,0.436,0c0.217,0,0-0.218,0,0H79.872z
		 M80.308,38.553c-0.219,0.653-0.436,1.307,0.217,1.307C80.741,39.424,81.179,38.771,80.308,38.553 M80.524,5.228
		c0.217,0,0.436,0,0.436-0.218C80.741,5.228,80.524,5.228,80.524,5.228 M80.524,38.335c0.436,0.436,0.654-0.653,0.217-0.653
		c0,0.218,0,0.436-0.217,0.218V38.335z M81.612,34.197c0,0.653-0.871,0.435-0.871,0.871c0.438,0,1.309,0,1.309-0.871H81.612v-0.218
		h0.219c0.219-0.436-0.871-0.436-0.652-0.218c0.217,0,0.434,0.218,0.434,0.218C81.396,34.197,81.396,34.197,81.612,34.197
		 M81.179,42.909h-0.438v0.436h0.438V42.909z M80.96,32.237c0.219,0,0.436,0,0.436-0.219C81.179,32.237,80.96,32.237,80.96,32.237
		 M82.483,30.712h-0.436v0.436h0.436V30.712z M82.267,36.375c0,0.435-0.436,0.653,0,0.653C82.267,36.81,82.702,36.593,82.267,36.375
		 M82.702,27.227c0.436,0,0.654,0.653,0.871,0C83.356,27.227,82.702,26.791,82.702,27.227 M83.792,7.624
		c0.652,0.218,0.871-1.089,0.217-1.307c-0.217-0.218-0.217,0.218,0,0C84.228,7.188,83.792,7.188,83.792,7.624 M84.228,30.93v0.217
		C84.445,31.147,84.228,30.93,84.228,30.93 M84.664,33.761c-0.436,0-0.219-0.435-0.219-0.871
		C85.099,33.108,84.664,33.326,84.664,33.761 M85.316,8.495c0.219,0,0.438,0,0.438-0.218C85.535,8.495,85.316,8.495,85.316,8.495"/>
	<path fill="#E85311" d="M158.934,13.069h-1.961c-0.219,0.654,0.652,0.436,1.09,0.436c-0.873,0.436-1.961,1.089-2.832,0.653
		c-0.219,0.436-0.436,0.871-0.219,0.871c-3.484,0.654-8.275,0.654-12.414,1.743c0-0.653-1.09-0.435-0.871,0.218
		c-1.309-1.089-3.051,0.435-5.229,0.218c-0.654,0.653-0.654,0.653-0.871,1.525c-1.09-0.218-1.523,0.871-2.396,0.217
		c0-1.089-0.871-0.653-1.523-0.653c0,0.436,0.652,0.436,0.871,0.653c-0.219,0.436-0.654,0.654-0.871,0.871
		c-1.525-1.088-2.832,1.308-4.575,1.308c0-0.437,0-0.872-0.219-1.09c-0.217,0-0.217,0.436-0.436,0.653
		c-0.652,0.437-1.523,0.654-1.307,1.308c-0.871,0-0.652-0.218-0.436-0.871c-0.217,0-0.436,0.217-0.654,0
		c-0.436,0.217,0,0.435-0.217,0.871h-0.871c0-0.218,0.436-0.218,0.652-0.218c0-0.436-0.217-0.653-0.436-0.653
		c-1.523,2.395-4.791,0.435-6.316,2.177c0,0.218,0.219,0.218,0.436,0.218c-2.395,0.218-4.355,1.525-6.752,1.743
		c0.219,0.653,0.871,0,1.307,0c0,0.435-0.652,0.435-1.088,0.435c-1.961,3.485-1.961,7.842-3.485,11.109
		c5.008-1.743,10.456-2.832,16.553-3.05c0,0.218,0.217,0.436,0.436,0.654c1.09-0.654,3.703,0.435,5.446,0.653
		c-0.654,0.436,0.217,1.089-1.09,0.872c0,0.217,0.219,0.435,0.436,0.435c-1.088,0.218-0.436,0.653-1.307,0.871
		c0,0.218,0.438,0.218,0.655,0.218c0,0.436-0.655,0.436-0.655,0.872c0.438,0,0.219,0.435,0.872,0.653
		c-0.434,0.871-0.434,1.96,0.654,2.396c-1.743,0.653-2.833,1.96-4.792,2.396c0,0.435,0.871,0.218,0.652,0.871
		c-2.613,0.436-3.92,2.178-6.535,2.614c0,0.435,0.219,0.653,0.438,0.653c-3.486,0.871-6.971,1.743-10.239,2.832
		c-1.088-1.961-2.832-3.267-4.139-5.01c-1.307,2.178-1.09,4.574-2.83,6.099c0,0.436,0.652,0.218,0.434,0.871
		c-1.525,0.653-0.652,3.485-2.396,4.356c0,0.654-0.217,1.525,0.438,1.525c-1.09,0.435-0.654,1.307-1.525,1.743
		c1.088,1.088-0.652,2.831-0.436,4.356c10.02-3.268,19.821-9.366,29.624-9.802c0.872,0.871,2.397,0.654,2.614,1.96
		c-0.436,0.872-1.961,0.436-2.178,1.307c0.652,0.218,0.217,0.654,0.871,0.654c0,0.653-0.871,0.435-1.088,0.653
		c0.217,0.436,0.653,0.436,0.217,0.872c-0.655-0.218-0.655,0.217-1.088,0.217c0.652,1.089,0,1.525-1.309,1.525
		c-0.217,0.653,0.217,0.653,0.217,1.089c-2.83,0.653-3.92,4.138-6.752,3.921c-0.217,1.96-3.049,1.96-3.701,3.702
		c-1.742-0.435-2.832-0.435-3.922,0.872c-0.217-0.218-0.217,0,0,0c-1.088,0.653-2.395,1.089-2.614,2.396
		c-3.049,0-3.92,3.049-7.188,1.96c-0.436,0-0.436,0.653-0.436,1.089c-7.625,1.742-14.376-2.831-17.861-7.841
		c0.436-9.148,3.703-14.376,5.881-21.346c0-0.871,0.219,0,0.652-0.435v-1.089c0-0.872,0.438-0.872,0.654-2.179
		c1.089-0.653,0.654-1.307,0.871-2.613c2.396-3.05,3.049-8.059,4.357-12.198c-0.871-0.653-2.18,0.218-2.832-0.218
		c-2.613-3.485-6.316-5.881-8.494-9.801c0.436-2.178,3.049-3.049,5.227-2.614c20.912-5.445,44.434-10.673,66.215-10.019
		c0,0.217-0.217,0.217-0.217,0.436c2.178,0,2.832,0.435,3.92,1.306c-0.436-0.653-1.307,1.525,0,1.089
		c0.654,0.218-0.652,0.218-0.871,0.218c0,0.654-0.436,0.654,0.219,0.871c-0.219,0.436-0.654,0.436-1.09,0.436
		c0.436,0.653,0.654,0,0.871,0.871C158.934,12.198,158.934,12.634,158.934,13.069 M96.419,31.148c0.219,0,0.436,0,0.436-0.218
		C96.638,30.93,96.419,30.93,96.419,31.148 M96.854,30.276c0.219-0.435,1.09-1.089,0.219-1.307
		C96.854,29.623,96.638,29.623,96.854,30.276C96.419,30.494,96.854,30.494,96.854,30.276 M118.419,23.524
		c0-0.436,0.436-0.436,1.088-0.436C119.291,23.524,118.855,23.524,118.419,23.524 M125.826,20.475c0.217,0,0.434,0,0.434-0.218
		C126.042,20.257,125.826,20.257,125.826,20.475 M128.439,60.77c0.217,0,0.217,0.218,0,0.218V60.77z M133.666,18.079
		c0,0.436,0.219,0.654,0.438,0.654C134.104,18.297,133.885,18.079,133.666,18.079 M149.785,7.624c0.217,0,0.436,0,0.436-0.218
		C150.002,7.406,149.785,7.406,149.785,7.624 M151.963,14.594c0.219,0,0.436,0,0.436-0.218
		C152.182,14.376,151.963,14.376,151.963,14.594 M153.488,6.317c0,0.218-0.219,0.218-0.438,0.218
		C153.051,6.317,153.27,6.317,153.488,6.317 M153.705,14.812c0.217,0,0.436,0,0.436-0.218
		C153.922,14.594,153.705,14.594,153.705,14.812 M155.666,13.505c0.217,0,0.436,0,0.436-0.218
		C155.883,13.287,155.666,13.287,155.666,13.505"/>
	<path fill="#00A0E1" d="M55.757,107.755C55.952,107.56,55.757,107.56,55.757,107.755c-0.197,0-0.197,0.197-0.197,0.393
		c-0.195,0-0.195,0.59,0,0.59c-1.768,2.357-3.535,4.912-5.894,6.68c-0.196-0.195-0.196,0,0,0c0,0.395-0.589,0-0.589-0.195
		c-0.982,1.178-2.358,0.98-2.947,2.553c-0.196,0-0.394-0.195-0.394-0.393c-0.982,1.375-3.143,1.572-3.732,3.34
		c-0.196,0-0.393,0-0.393-0.195c0.197-0.197,0-0.197,0,0c-0.393,0-0.983-0.197-0.786,0.393c-1.964,0.393-1.768,0.785-3.143,1.18
		c0.589,0.391,0,0.588,0.392,0.98c0.59-0.197,0.393-1.375,1.573-1.178c-0.59,0.393-0.59,0.785-0.59,1.375
		c-0.786,0-1.375,0-1.769-0.395c0,0.787-0.392,0.984-0.982,1.377c-0.393,0-0.589-0.195-0.589-0.59
		c-1.179,0.197-0.786,0.982-1.965,0.982c0.393-0.393,0-0.197,0-0.785c-0.392,0.785-1.375,0.197-1.768,0.785
		c0.393,0.393,0.786,0.393,1.768,0c0,1.375-1.965,0.982-1.768,1.965c-0.589-0.59-2.554,0.197-1.179,0.393
		c-0.983,0.197-1.571,0.787-2.751,0.787c0-0.59-0.785,0.197-0.196,0.197c-0.589,0.393-1.572,0.393-1.965,0.783
		c-0.393-0.195-0.197-0.783-0.982-0.588c-1.376,1.572-1.179,3.34-1.965,5.305c-0.197,0.59,0.393,0.393,0.589,0.59
		c0,0.393-0.589,0.393-0.589,0.785c-0.589,0.197-0.589-0.195-0.982-0.195c0.196-0.787-0.59,0,0,0c0,0.588,0.196,0.588,0.785,0.588
		c-0.196,0.984-0.392,1.572-0.785,2.359h-0.197c0-0.197-0.197-0.197-0.197-0.592c-0.785,0.197-0.588,1.376-0.785,1.966
		c0.197,0.59,0.982-0.197,1.179,0.195c0,0.395-0.786,0.197-0.982,0.197c-1.179,3.145-0.787,6.68-2.358,9.627
		c0.785,0.59,0,1.178,0.393,1.572c0,0.393-0.393,0.195-0.59,0c-0.196,1.375-0.393,2.947-0.983,3.93h-0.588v-0.787
		c-0.983,0-0.197,0.59-0.59,1.18c-0.589-0.393-1.572,0.195-1.768-0.59c-0.786,0.197-0.982,0.785-1.572,1.18v-0.59
		c-0.786-0.393-2.357-1.965-2.751-2.75c0.982-7.271,2.162-14.736,3.733-21.613c-2.751-0.785-6.287-1.77-7.269-3.732
		c-0.983,0-1.571-0.197-1.965-0.787c0.59-0.195,0.59,0.197,0.982,0.197c-0.588-0.59-1.375-0.982-1.768-1.77
		c0.393,0,0.393,0.197,0.786,0.197c0.196,0.393,0.394,0.787,0.786,0.393c-0.196-0.195-0.392-0.393-0.786-0.393
		c-1.179-1.178-2.161-2.162-2.75-4.125c0.589,0.195,0.785,0.98,1.571,0.98c0.197,0.395,0.197,0,0,0
		c-0.392-0.393-0.392-1.375,0.197-1.768c0.393,0.197,0.589,0.787,0.786,1.18c3.34,2.357,7.662,1.18,11.199,0.785
		c1.375-6.877,3.143-11.199,4.126-18.271c-0.786-0.785-1.376,1.375-2.359,0.59c-1.178,1.18-2.75,2.555-4.125,2.947
		c-1.179,1.178-2.947,2.553-4.519,2.16c-0.589-0.982-1.375-1.768-2.554-1.963c0.393-1.18-0.786-1.965-1.376-2.752
		c0.198-0.588,0-0.785,0-1.768c4.52-6.287,12.182-9.432,20.238-12.379c0.392,0,0.392,0.195,0.588,0.393
		c0.197,0,0.197-0.393,0.197-0.588c4.323-1.572,10.02-2.359,15.915-1.77c1.965,0.59,4.322,0.982,5.697,1.572
		c5.895,2.75,9.234,11.2,9.037,17.684c-0.195,0.195-0.393,0.393-0.59,0.588h-0.195V107.755z M3.103,123.079
		c0,0.197-0.198,0.197-0.394,0.197C2.709,123.079,2.905,123.079,3.103,123.079 M5.656,105.595c0,0.197-0.196,0.197-0.392,0.197
		C5.264,105.595,5.46,105.595,5.656,105.595 M12.533,129.958c0.589-0.197,0.983,0.195,1.375,0.195
		C14.105,129.563,12.533,129.761,12.533,129.958 M13.516,129.171c0.196,0,0.392,0.393,0.392,0
		C13.908,128.974,13.516,128.974,13.516,129.171 M21.57,135.458c0.197,0,0.394,0.393,0.394,0
		C21.964,135.261,21.57,135.261,21.57,135.458 M21.57,136.048v0.59C22.16,137.028,22.16,135.851,21.57,136.048 M21.767,133.69
		c0.197,0,0.393,0.393,0.393,0C22.16,133.493,21.767,133.493,21.767,133.69 M22.553,132.903c0-0.195,0-0.785-0.196-0.785
		c0,0.195-0.393,0.195-0.393,0.393C22.357,132.511,22.16,133.101,22.553,132.903 M22.749,132.708c0.197,0,0.394,0,0.394-0.197
		C22.946,132.511,22.749,132.511,22.749,132.708 M25.893,127.401c-0.393-0.195-0.393-0.393-0.197-0.588
		c-0.588-0.197-0.785,0.588-0.392,0.785C25.304,127.009,25.893,128.188,25.893,127.401 M27.072,90.073c-0.393,0-0.786,0-0.786,0.588
		C26.679,90.661,26.875,90.463,27.072,90.073 M49.47,99.896c-2.751-3.732-10.806-2.355-15.325-2.553
		c-0.197,0.785-2.75,0.785-3.929,1.375c-2.162,5.502-2.358,13.359-3.733,19.254c7.662-2.555,13.556-6.484,19.451-10.805
		C47.309,104.808,49.862,103.827,49.47,99.896 M27.465,126.813c0.393,0,0.982,0,0.982-0.395
		C28.054,126.616,27.661,126.616,27.465,126.813C27.072,127.009,27.465,127.009,27.465,126.813 M28.054,127.796
		c0,0.197,0,0.197-0.196,0.197C27.858,127.796,27.858,127.796,28.054,127.796 M28.84,125.831h0.394c0,0.195-0.59,0.785,0,0.785
		c0.196-1.375,2.946,0.197,2.161-1.375c-0.59,0.197-1.376-0.393-1.376,0.59C29.822,125.438,29.234,125.438,28.84,125.831
		C28.447,126.026,28.84,126.026,28.84,125.831 M32.966,97.735c0.196,0,0.394,0,0.394-0.195C33.162,97.54,32.966,97.54,32.966,97.735
		 M33.948,125.634c0,0.197-0.196,0.197-0.392,0.197C33.556,125.634,33.752,125.634,33.948,125.634 M35.913,123.079
		c0.393,0,0.59-0.197,0.786-0.393c0.197-0.197,0-0.197,0,0C36.306,122.687,35.717,122.489,35.913,123.079 M37.288,120.722h-0.392
		c0,0.197-0.197,0.197-0.197,0.393C37.092,121.114,37.288,121.114,37.288,120.722 M39.449,119.937c0.394,0,0.59-0.197,0.787-0.59
		c0.196-0.197,0-0.197,0,0C39.647,119.347,39.647,119.739,39.449,119.937 M41.808,121.114c0,0.393-0.983-0.195-0.59,0.59
		c-0.196,0-0.393-0.393-0.59,0c-0.589-0.197,0.197-0.59,0.197-0.785C41.218,120.919,41.611,120.919,41.808,121.114 M42.79,120.722
		c0-0.195,0.196-0.393,0.589-0.393C43.379,120.526,43.183,120.722,42.79,120.722 M43.969,120.132c0,0.197-0.196,0.197-0.394,0.197
		C43.575,120.132,43.773,120.132,43.969,120.132 M45.148,117.382C45.344,117.187,45.148,117.187,45.148,117.382
		C44.754,117.579,45.148,117.579,45.148,117.382 M45.934,118.757H45.54v-0.393h0.394V118.757z M52.612,113.06
		c0.197-0.393,0.394-0.59,1.18-0.59C53.987,113.255,53.202,113.06,52.612,113.06 M54.97,110.897c-0.393-0.195,0-1.375,0.787-1.375
		C55.56,110.112,55.167,110.505,54.97,110.897 M55.757,108.147c0.195,0.197,0.393,0.787-0.197,0.59v-0.59H55.757z"/>
	<path fill="#00A0E1" d="M73.634,89.286c0.197,0,0.197-0.195,0-0.195c0.59-0.982,2.359-0.982,3.143-1.967
		c3.342,0.592,5.109,2.949,7.075,4.717c0.195,0.195,0.59,0,0.785,0.195c1.375,1.965,1.375,4.717,2.16,6.879
		c0,0.393,0,0.785-0.391,0.785c0.391,0.59,0.195,1.375,0.391,1.768c-0.59,2.947,0.395,5.895,0,8.842
		c0.787,4.125,0.592,9.824,5.896,8.055c1.178,0.59,0.982,1.178,0.785,1.572c-1.77,0.393-2.554,1.965-4.322,2.553
		c1.768,6.484,2.75,12.574,4.714,19.451c-0.982-0.588-0.393,0.787-0.59,0.984c-0.393,0-0.393-0.197-0.785-0.197
		c0.588,2.16-1.375,3.34-2.947,3.145c-0.393-0.984-1.768-1.572-2.752-1.377c-2.75-4.322-4.125-11.787-5.893-16.699
		c-1.18-0.197-2.947,1.375-3.34,0.59c-0.395,0-0.395,0.393-0.395,0.785c-0.59-0.393-1.373,0-1.963,0.197c0,0.195,0,0.59,0.195,0.59
		c-1.768,0.785-4.91,1.178-7.66,1.768c-0.197,0-0.197,0.393,0,0.393c-0.395,0.59-0.787-0.197-1.377,0
		c-1.375,0.195-0.785,1.768-1.965,1.965c-2.555,6.876-5.107,13.949-7.662,19.843c-1.375,0.982-3.34,0.785-4.715,1.572
		c-0.786-0.982-2.358-0.982-2.947-2.162c-1.769,0.787-2.948-1.375-3.93-2.555c1.768-7.857,5.502-14.537,8.448-22.003
		c-0.785-1.18-0.982-1.572-1.571-2.555c0.393-0.393,0.786-0.59,1.375-0.59c0.196-0.59,0.59-1.18,0.786-1.768
		c0.786-0.197,1.374-0.787,1.964-1.18c2.357-5.5,3.537-10.02,6.877-14.932c0.982-3.143,2.555-4.912,3.34-8.055
		c0.197-0.197,0.785-0.197,0.982-0.393c0-0.787,0.785-0.982,0.395-1.768c1.768-1.18,2.553-3.932,3.73-6.092
		c0.197,0,0.197,0.393,0.197,0.588c0.393-0.195,0.393-0.785,0.393-1.375c0.393-0.195,0.393-0.393,0.982-0.195
		c0.197-0.59-0.195-0.982,0.59-1.375V89.286z M54.772,155.694H54.38v-0.393h0.393V155.694z M68.329,132.511
		c-0.588-0.393,0.787-1.178,1.18-0.59C69.312,132.313,68.329,131.921,68.329,132.511 M78.349,118.562
		c-0.59-2.947-1.375-7.467-1.77-11.396c0-0.195-0.195-0.195-0.391-0.195c-1.77,4.518-4.322,8.055-5.697,12.77
		C73.634,119.739,75.796,119.149,78.349,118.562"/>
	<path fill="#00A0E1" d="M136.506,94.59c0.197,0.59,0.787-0.195,0.787-0.393c0.195,0,0.393-0.197,0.393,0
		c0,1.18-1.18,1.18-0.982,2.555c-0.59,0.197-1.18,0.393-1.377,0.982c0,0.393,0.592,0,0.592-0.197c0.588,1.572-1.77,1.965-1.77,3.537
		c0.395-0.393,0.59-0.785,0.785-1.18c0.197,0.59-0.195,2.752-1.178,2.752c0.195-0.393,0.393-0.982,0.588-1.377
		c-1.375,0.197-0.588,2.359-1.963,2.557c0.393,0.588,0.588,1.57-0.395,1.57c0,0.785,0.59,0,0.59,0.393
		c-0.785,1.18-1.571,1.18-2.555,1.965c0.197,0.197,0.197,0.59,0.197,0.982c-0.785,0.393-1.375,0.982-1.572,2.16
		c-2.553,1.572-3.536,4.717-5.893,6.484c0-0.197,0.195-0.197,0.195-0.59c-0.393,0.197-0.59,0.787-0.785,0.982
		c-0.197-0.195-0.395-0.59-0.59,0h-0.195c-0.197-0.195-0.197-0.393-0.197-0.59c-0.395,0-0.395,0.982,0.197,0.59v0.393
		c-0.395,0.197,0,0.197,0,0c0.195,0,0.195-0.195,0.195-0.393c0.59,0.393,0.393,1.768-0.393,2.162v-0.197
		c-0.197,0-0.197,0.197,0,0.197c-0.982,0.59-0.197,0.785-0.787,1.57c-0.391-0.393-0.195,0-0.785,0c0-0.195,0-0.393,0.197-0.588
		c-0.787-0.197-0.395,0.785-0.982,0.785c-0.197-0.197-0.197,0,0,0c-0.197,0.982-0.787,1.178-0.395,2.162
		c-0.393,0.195-0.588,0.195-0.785,0c0,0.982,0.197,1.178-0.197,1.768c-0.393,0-0.588,0.195-0.588,0.393c0,0.393,0.785,0,0.588-0.393
		c0.59,0.59-0.195,1.375-0.393,1.965c-1.375,0-1.572,0.982-1.963,1.77c-0.197,0-0.395,0.195-0.395,0.393c0,0.393,0.59,0,0.395-0.393
		c0.785,1.375-1.965,2.553-1.965,4.32c-0.59-0.195-1.375-0.393-1.18,0.592c-0.787-0.197-0.393,0.783,0.195,0.588
		c-0.982,3.144-2.948,5.501-4.715,7.859c-1.768,4.125-4.715,7.27-6.287,11.592c-0.195,0-0.393-0.393-0.393,0.197
		c-1.375,1.768-1.572,4.518,0.197,6.09c-0.197,0.197-0.982,0.785-0.59,0.982c-0.197,0.59-1.967-0.982-1.77,0.393
		c-2.553-0.195-3.928-1.965-6.09-2.16c-1.18-0.59-2.359-1.375-2.947-2.752c-0.393-0.195-0.787-0.393-0.982-0.785
		c0-8.252,6.287-13.359,9.626-19.451c0.195,0.393,0.195,0,0,0c3.93-6.09,8.057-12.379,11.79-18.666
		c-9.432-1.375-11.2-10.215-14.147-18.074c-0.197-4.322-2.162-5.895-2.162-10.02c0.395-0.59,1.18-0.984,1.572-1.572
		c2.553,0.393,4.912-0.59,6.092,1.375c0.393,0,0.588-0.195,0.588-0.59c1.77,1.965,3.93,3.34,4.52,6.485
		c-0.195,0-0.393,0.197-0.785,0.197c0.393,1.178,0.195,2.947,1.18,3.732c0.588,4.322,1.963,9.627,5.303,11.984
		c1.77,0,2.555-1.18,3.537-1.965c4.324-7.857,9.824-14.539,13.952-22.596c0.98,0.197,1.768,0.787,2.553,0.197
		c0.393,0,0.393,0.393,0.393,0.787c0.982-0.395,1.375-1.18,2.555-0.395c0,0.197-0.393,0.197-0.393,0.395
		c0.195,0.393,0.982-0.787,0.982,0.393c-1.178-0.59,0.393,0.785-0.59,1.18c0.787,0.195,0.59-0.395,1.178-0.395
		c0,0.395-0.195,0.395-0.391,0.59c0.391,0,1.768-0.393,1.965,0.785c-0.59-0.197-0.59,0.197-0.984,0.197c0.395,0.59,0.984,0,1.572,0
		c-0.197,0.982-0.588,1.965,0.393,1.768c-0.393,0.59-0.785,1.18-1.768,0.982c0,0.197,0.197,0.197,0.197,0.59
		C136.898,94.198,136.506,94.198,136.506,94.59 M91.315,158.446C91.12,158.249,91.12,158.446,91.315,158.446
		C91.511,158.838,91.511,158.446,91.315,158.446 M100.157,139.19C99.962,138.995,99.962,139.19,100.157,139.19
		C100.354,139.583,100.354,139.19,100.157,139.19 M101.337,152.747c-0.393,0-0.59,0.197-0.59,0.393
		C101.14,153.139,101.337,152.944,101.337,152.747 M111.947,133.101C112.142,132.903,111.947,132.903,111.947,133.101
		C111.554,133.296,111.947,133.296,111.947,133.101 M116.466,120.132c0.393-0.195,0.393-0.59,0.785-0.195
		C117.251,118.954,116.466,119.542,116.466,120.132C116.072,120.329,116.466,120.329,116.466,120.132 M117.447,120.132h-0.195
		c-0.197,0.395-0.59,0.59-0.393,1.18c-0.393,0.195,0,0.195,0,0C117.251,121.114,117.447,120.722,117.447,120.132
		c0.197,0,0.197-0.195,0.197-0.393c0.393,0.393,0.59-0.59,0.197-0.59c-0.197,0.197-0.197,0.393-0.197,0.59
		C117.447,119.739,117.447,119.937,117.447,120.132 M117.841,120.919c0-0.393,0.588-0.393,0.393-0.982c0.195-0.197,0-0.197,0,0
		C117.841,119.937,117.251,120.722,117.841,120.919 M117.644,121.704c0.197,0,0.393,0,0.393-0.197
		C117.841,121.507,117.644,121.507,117.644,121.704 M118.824,117.579c-0.197,0.195-0.197,0.785-0.59,0.785
		c0-0.197-0.197-0.197-0.197,0c-0.393,0.197,0,0.197,0,0h0.197c0.195,0.393-0.59,0.59,0.195,0.59
		c0.395-0.197,0.395-0.787,0.59-1.375h0.59v-0.395c-0.197,0-0.393-0.195-0.59-0.195v0.59H118.824z M119.019,122.099
		c0.197,0,0.197,0.195,0.59,0.195c-0.197,0.195-0.59,0.393-0.785,0.588C118.824,122.489,118.824,122.294,119.019,122.099
		 M122.359,119.149c-0.195,0-0.195-0.393-0.195-0.785C122.753,118.167,122.556,118.954,122.359,119.149 M129.826,106.772
		c-0.393-0.195-0.982,0.59-0.393,0.59C129.434,107.165,129.826,106.97,129.826,106.772 M130.611,105.987c0-0.197,0-0.393,0.197-0.59
		h-0.589v0.393C130.416,105.79,130.416,105.987,130.611,105.987 M134.543,88.696c0.195,0,0.391,0,0.391-0.195
		C134.738,88.5,134.543,88.5,134.543,88.696 M136.113,90.661C136.898,90.858,136.113,90.073,136.113,90.661
		C135.721,90.858,136.113,90.858,136.113,90.661"/>
	<path fill="#00A0E1" d="M140.236,139.387c0.59,0.195,0.982-0.197,1.375,0c-0.785,1.572-2.162,4.912-3.145,6.482
		c0.395,1.572-0.393,3.537-1.57,5.109c-1.768,0.195-4.127-0.197-6.287-0.59c-0.197-0.393-0.395-1.57-1.18-0.982
		c-0.982-1.375-2.75-1.77-4.125-3.34c-0.395-1.768,0.393-4.912,1.965-5.697c1.375-4.322,2.161-6.287,5.108-8.054
		c4.322,0.588,6.484,2.945,8.449,5.303C140.432,138.405,140.826,139.19,140.236,139.387"/>
	<path fill="#00A0E1" d="M48.267,175.494c0.016-0.494-1.077,0.924-0.89,0.271c-1.508,0.609-2.823,0.402-4.484,0.678
		c0.011-0.33,0.176-0.324,0.347-0.484c-0.144-0.666-0.991-0.033-1.645-0.219c0.01-0.33,0.016-0.496-0.144-0.666
		c-0.655-0.186-1.161,0.127-1.336,0.453c0.308,0.67,1.655-0.111,1.788,0.885c-2.646,0.078-4.313,0.52-6.283,0.123
		c-0.495-0.016-0.505,0.314-0.676,0.475c-0.33-0.012-0.149-0.502-0.479-0.512c-1.672,0.607-2.827,0.568-4.654,0.838
		c-0.649-0.35-1.98-0.064-2.465-0.41c-2.188,1.25-6.766-0.221-8.29,0.887c-5.579-1.174-12.283,1.746-16.317-1.195
		c0.543-1.471-1.762-1.711-1.032-3.834c-0.638-0.682-0.276-1.662-0.728-2.998c0.012-0.33-0.825-0.027-0.979-0.363
		c0.022-0.66,1.001-0.297,1.342-0.615c-0.149-0.502-0.127-1.162,0.533-1.141C1.88,167.5,1.55,167.49,1.22,167.48
		c0.017-0.496,0.506-0.314,0.842-0.469c0.021-0.66-1.002,0.299-0.974-0.527c4.126,0.135,8.928-0.203,12.575-0.58
		c1.97,0.395,4.946,0.326,6.134-0.625c0.501-0.15,0.319,0.34,0.65,0.352c3.514-1.373,10.089-0.332,14.402-0.852
		c0.5-0.148,0.143,0.666,0.808,0.523c0.166,0.006,0.177-0.324,0.012-0.33c8.141-1.387,15.52,0.342,23.012-1.395
		c0.004-0.166-0.65-0.352-0.148-0.502c0.494,0.018,0.818,0.193,0.479,0.512c0.494,0.018,0.648,0.352,0.83-0.139
		c0.629,1.012,1.508-0.611,2.477,0.082c0.037-1.156,2.48-0.084,2.992-0.563c0.467,0.842,2.289,0.734,3.449,0.607
		c0.182-0.49-0.32-0.34-0.479-0.512c1.484,0.049,4.168-1.185,5.121,0.004c-0.16-0.172-0.814-0.357-0.826-0.027
		c2.289,0.734,3.461,0.277,6.602,0.215c0.166,0.006,0.688-0.803,0.023-0.658c2.299,0.404,4.328-1.015,6.43,0.375
		c0.166,0.006,0.176-0.326,0.012-0.33c2.129,0.564,6.314-1.115,9.259-0.193c2.496-0.578,4.775,0.488,7.596,0.084
		c-0.004,0.164-0.17,0.158-0.18,0.49c1.502-0.447,1.672-0.607,3.008-1.058c0.164,0.006,0.154,0.334,0.145,0.664
		c2.848-1.226,5.946,0.031,8.938-0.531c1.609,1.373,2.813-0.074,5.117,0.166c-0.18,0.49-0.352,0.65,0.309,0.671
		c0.496,0.016-0.154-0.336,0.021-0.66c0.666-0.145,0.309,0.669,0.809,0.521c-0.021,0.66,0.496,0.016,0.486,0.346
		c0.164,0.006,0.174-0.324,0.18-0.49c0.826,0.029,0.975,0.529,1.971,0.395c0.33,0.012-0.148-0.5,0.186-0.652
		c0.496,0.016,2.002-0.597,2.301,0.404c0.334-0.154,1.154,0.037,1.496-0.281c0.467,0.842,0.82,0.191,1.651,0.055
		c0.143,0.664,0.484,0.346,0.809,0.521c0.33,0.012,0.021-0.66,0.357-0.814c0.826,0.027,0.984,0.197,1.656-0.111
		c0.158,0.169,0.484,0.347,0.645,0.517c2.996-0.728,5.611,0.184,9.908,0.158c-0.027,0.824-0.826-0.027-1.002,0.299
		c2.443,1.07,4.457,0.145,7.57,0.908c-0.016,0.494-0.666,0.143-0.676,0.473c0.484,0.348,1.65,0.055,2.305,0.242l-0.021,0.658
		c0.826,0.027,1.32,0.045,1.986-0.1c-0.012,0.33-0.021,0.66-0.191,0.82c1-0.297,1.846-0.932,2.475,0.082
		c0.336-0.156-0.143-0.666,0.037-1.156c0.309,0.67,0.65,0.352,1.465,0.709c0.143,0.666-0.506,0.314-0.666,0.143
		c0.475,0.678,2.268,1.396,0.303,0.836c0.469,0.842-0.518,0.645-0.379,1.475c0.32,0.342,1.641,0.385,2.637,0.252
		c0.137,0.83-0.836,0.303-1.178,0.623c0.314,0.506,0.148,0.5,0.299,1c0.33,0.012,0.5-0.148,0.506-0.314
		c0.488,0.184,0.154,0.336,0.143,0.666c0.494,0.018,0.676-0.473,0.996-0.133c-0.527,0.975-2.471-0.246-2.637-0.25
		c-0.18,0.488-0.361,0.979-0.697,1.133c-0.01,0.33,0.324,0.176,0.654,0.188c-0.197,0.984-1.645-0.219-1.021,0.957
		c-0.496-0.016-0.65-0.352-0.635-0.848c-0.33-0.01-0.506,0.314-0.994,0.135c0.313,0.506,0.313,0.506-0.512,0.479
		c-0.484-0.348-0.639-0.682-1.305-0.539c-0.33-0.012-0.518,0.645-0.846,0.633c-0.83,0.139-2.301-0.404-2.328,0.42
		c-1.969-0.395-3.961-0.131-6.787,0.439c0.01-0.33,0.176-0.326,0.186-0.656c-0.17,0.16-1.475-0.379-1.336,0.453
		c-0.49-0.182-1.32-0.043-1.469-0.545l-0.512,0.48c0.324,0.176,0.66,0.021,1.145,0.367c-0.012,0.33-0.5,0.148-0.506,0.314
		c0.479,0.51,0.99,0.033,1.475,0.379c-0.678,0.473-1.98-0.066-2.641-0.088c-0.188,0.656,0.307,0.672,0.291,1.166
		c-0.5,0.148-0.836,0.305-1.33,0.287c0.006-0.164,0.016-0.494,0.021-0.66c0.34-0.318,0.33,0.012,0.824,0.027
		c-0.143-0.664-0.979-0.363-1.463-0.709c0.012-0.33,0.66,0.021,0.676-0.473c-0.148-0.502-0.143-0.666-0.645-0.518
		c0.359-0.814,1.326-0.121,2.334-0.584c-0.309-0.67-0.82-0.191-0.969-0.693c-0.672,0.309-2.172,0.756-2.813,0.074
		c-0.336,0.154-0.83,0.137-0.846,0.633c0.318,0.34,0.984,0.197,1.303,0.539c-0.176,0.324-0.666,0.143-1,0.297
		c-0.314-0.506-0.639-0.682-0.623-1.178c-0.164-0.004-0.34,0.32-0.506,0.314c-0.016,0.494,0.48,0.512,0.293,1.166
		c-0.648-0.352-0.5,0.148-0.996,0.133c0.006-0.164,0.34-0.318,0.348-0.484c-0.15-0.5-0.672,0.309-0.82-0.193
		c0.004-0.164,0.334-0.152,0.34-0.316c-0.633-0.85-1.176,0.621-2.162,0.424c-0.324-0.176,0.197-0.986-0.467-0.842
		c-0.502,0.148,0.148,0.502-0.033,0.99c-0.5,0.148-0.654-0.188-0.814-0.357c-0.33-0.01-0.182,0.49-0.67,0.309
		c0.473,0.678,1.809,0.225,2.965,0.264c-0.688,0.803-2.646,0.078-3.168,0.887c0.01-0.33-0.15-0.5-0.314-0.506
		c-0.17,0.16-0.346,0.484-0.836,0.303c0.18-0.49,0.016-0.494,0.357-0.814c0.17-0.158,0.006-0.164,0,0
		c-0.496-0.016-0.99-0.031-1.162,0.127c0.012-0.33,0.021-0.66-0.309-0.67c-0.652-0.188-0.51,0.479-1,0.297
		c-0.182,0.49,0.49,0.182,0.309,0.672c-0.496-0.018-0.836,0.303-1.49,0.115c-0.309-0.672,0.984,0.197,0.846-0.633
		c-1.314-0.209-1.996,0.432-3.162,0.723c-0.154-0.334-0.475-0.678-0.133-0.996c-0.16-0.17-0.996,0.133-1.145-0.367
		c-0.17,0.16,0.473,0.676-0.676,0.473c-0.012,0.33,0.148,0.5,0.313,0.506c-0.676,0.475-0.996,0.135-1.832,0.436
		c-0.148-0.5-0.154-0.334,0.027-0.824c-0.984-0.197-0.346,0.484-0.688,0.803c-0.324-0.176-1.16,0.127-0.969-0.691
		c-0.83,0.137-1.314-0.209-2.635-0.252c-0.352,0.648,0.66,0.021,0.475,0.676c-0.826-0.027-1.652-0.053-2.162,0.426
		c-0.012,0.33,0.494,0.016,0.5-0.148c0.32,0.34-0.352,0.648-0.369,1.145c-0.322-0.176-0.818-0.193-0.973-0.529
		c-0.309-0.67,0.5-0.148,0.512-0.479c0.016-0.494-1.145-0.367-0.303-0.836c-0.98-0.361-1.971-0.395-2.647,0.08
		c-0.666,0.143-0.479-0.512-0.975-0.529l0.006-0.164c-0.166-0.006-0.172,0.16-0.006,0.164c-0.182,0.49-1.32-0.043-1.342,0.617
		l-0.166-0.004c-0.004,0.164,0.16,0.17,0.166,0.004c0.164,0.006,0.324,0.176,0.49,0.182c-0.348,0.484-1.998,0.432-2.486,0.25
		c-0.15-0.502,0.506-0.314,0.516-0.645c-0.986-0.197-3.291-0.438-3.152,0.393c-0.34,0.318-1.148-0.203-1.336,0.451
		c0.318,0.342,0.814,0.357,0.627,1.012c-0.488-0.18-0.666,0.145-0.996,0.133c0.012-0.328,0.523-0.809-0.137-0.83
		c0.191-0.82-0.475-0.676-0.287-1.33c-0.17,0.158-0.666,0.143-0.836,0.303c0.633,0.846-0.342,0.318-0.529,0.973
		c-0.164-0.004-0.334,0.154-0.34,0.32c-0.318-0.34-0.818-0.193-0.469-0.842c-0.148-0.5-0.346,0.484-0.836,0.303
		c-0.324-0.176-0.82-0.191-0.803-0.686c0.33,0.01,0.66,0.02,0.99,0.031c0.012-0.33-0.484-0.346-0.645-0.518
		c-0.158-0.17-0.164-0.004,0,0c-0.004,0.166-0.336,0.156-0.506,0.314c0.006-0.166,0.012-0.33,0.016-0.494
		c-1.303-0.539-1.857,1.26-2.492,0.412c-0.494-0.016-0.195,0.986-0.852,0.801c0.012-0.33,0.342-0.32,0.193-0.82
		c-0.49-0.182-0.836,0.303-0.826-0.027c-0.33-0.012-0.021,0.66-0.357,0.814c-0.99-0.033-1.484-0.049-2.31-0.076
		c-0.527,0.975-1.854,1.096-3.02,1.389c0.033-0.99-0.781-1.348-1.25-2.189c-0.352,0.648-2.305-0.24-2.69,1.398
		c0.314,0.508,0.672-0.309,0.992,0.033c-0.699,1.133-1.84,0.602-3.664,0.871c0.516-0.643,1.336-0.451,2.342-0.914
		c-0.479-0.512-0.984-0.197-0.793-1.018c-0.664,0.143-0.66-0.021-1.484-0.049c0.639,0.682-0.857,0.965,0.291,1.166
		c-0.176,0.324-0.506,0.314-1,0.299c0.004-0.166,0.34-0.32,0.346-0.484c-0.654-0.188-1.309-0.373-1.623-0.881
		c-0.678,0.475-1.975-0.229-2.018,1.092c-0.98-0.363-1.916-2.045-3.104-1.094c0.148,0.502,1.309,0.373,1.969,0.395
		c-0.01,0.33-0.021,0.66-0.346,0.484c0.139,0.832,1.639,0.385,1.805,0.391c-0.021,0.66-0.996,0.133-1.012,0.627
		c-1.299-0.703-4.83,1.164-6.107-0.199c-0.682,0.639-1.33,0.287-2.32,0.254c-0.145-0.664,0.67-0.309,0.686-0.803
		c-0.818-0.193-1.639-0.385-2.459-0.576c-0.334,0.154-0.67,0.309-0.691,0.969c-0.49-0.182-0.984-0.197-1.645-0.219
		c0.01-0.33,0.174-0.326,0.346-0.484c-0.32-0.342-1.32-0.043-1.502,0.445c-0.33-0.012-0.148-0.5-0.314-0.506
		c-0.164-0.006-0.17,0.16-0.334,0.154c-0.018,0.496,0.307,0.67,0.967,0.693c-1.021,0.957-5.436,0.018-5.127,0.689 M4.367,167.252
		l0.011-0.33l-0.33-0.01l-0.011,0.33L4.367,167.252z M18.471,165.4c-0.005,0.166-0.17,0.16-0.335,0.154
		C18.141,165.391,18.306,165.396,18.471,165.4 M35.978,175.723c0.159,0.17,0.655,0.186,0.665-0.145
		C36.313,175.566,35.983,175.557,35.978,175.723 M38.965,175.324c-0.011,0.33,0.149,0.5,0.479,0.51
		C39.454,175.504,39.295,175.334,38.965,175.324 M41.765,175.58c0.165,0.006,0.33,0.012,0.335-0.154
		C41.935,175.42,41.77,175.416,41.765,175.58 M44.267,164.758c0.165,0.006,0.33,0.012,0.336-0.154
		C44.438,164.598,44.273,164.594,44.267,164.758 M48.042,175.621C47.707,175.775,48.037,175.785,48.042,175.621
		c0.165,0.006,0.176-0.326,0.011-0.33c0.005-0.166,0.17-0.16,0.176-0.326c-0.495-0.016-0.831,0.139-1.001,0.299
		c0.319,0.342,0.33,0.012,0.825,0.027L48.042,175.621z M57.854,163.549l-0.494-0.016l0.01-0.33
		C57.7,163.215,57.864,163.221,57.854,163.549 M62.753,175.441c-0.654-0.188-0.672,0.309-1.16,0.127
		c0.021-0.66,1.842-0.766,1.479,0.213C62.741,175.771,62.747,175.605,62.753,175.441 M64.239,175.49
		c-0.342,0.32-0.332-0.01-0.314-0.506C64.091,174.99,64.249,175.16,64.239,175.49 M64.739,175.34
		c-0.006,0.166-0.176,0.326-0.506,0.314l0.006-0.164C64.403,175.496,64.409,175.33,64.739,175.34 M65.399,175.363
		c-0.006,0.164-0.17,0.158-0.336,0.154C65.069,175.352,65.233,175.357,65.399,175.363 M65.628,163.309l0.012-0.33
		c0.164,0.006,0.164,0.006,0.17-0.16C66.14,162.83,65.948,163.65,65.628,163.309 M65.591,174.543l-0.012,0.33l-0.33-0.012
		l0.012-0.33L65.591,174.543z M67.099,173.932c-0.32-0.342-0.496-0.018-0.826-0.027C66.085,174.559,67.251,174.268,67.099,173.932
		 M69.382,174.832c0.488,0.182,1.342-0.617,1.48,0.213c0.66,0.021,0.846-0.633,1.832-0.436c0.021-0.66-0.502,0.148-0.645-0.518
		c0.33,0.014,0.494,0.018,0.506-0.313c-0.166-0.006-0.33-0.01-0.49-0.182l-0.512,0.479c-0.158-0.17-0.314-0.506-0.645-0.516
		c-0.35,0.648-0.516,0.645-1.166,0.293C69.563,174.342,69.728,174.348,69.382,174.832 M70.372,174.865
		c-0.012,0.33-0.502,0.148-0.346,0.484C70.351,175.525,70.702,174.875,70.372,174.865 M76.208,173.238l0.012-0.33l-0.33-0.012
		c-0.006,0.166-0.006,0.166-0.012,0.332C76.042,173.232,76.042,173.232,76.208,173.238 M76.511,174.074
		c-0.006,0.164-0.17,0.16-0.334,0.154C76.181,174.064,76.347,174.068,76.511,174.074 M77.634,175.104
		c-0.342,0.318-0.836,0.301-1.32-0.045C76.665,174.41,77.634,175.104,77.634,175.104 M77.208,162.861
		c-0.006,0.166-0.17,0.16-0.336,0.154C76.878,162.852,77.042,162.855,77.208,162.861 M77.671,173.947
		c-0.006,0.164-0.17,0.158-0.336,0.154C77.341,173.936,77.507,173.941,77.671,173.947 M78.997,173.824
		c0.166,0.006,0.33,0.012,0.336-0.154C79.167,173.666,79.003,173.66,78.997,173.824 M80.179,162.959
		c-0.318-0.342-0.496-0.016-0.672,0.309C79.839,163.277,80.009,163.119,80.179,162.959 M83.785,173.982l-0.497-0.018l0.012-0.328
		C83.63,173.646,83.794,173.652,83.785,173.982 M86.425,174.068c-0.309-0.672,0.66,0.021,0.516-0.645
		c-0.66-0.021-0.83,0.139-1.006,0.463C86.099,173.893,86.259,174.063,86.425,174.068 M87.75,173.945
		c-0.016,0.496-1.15-0.201-1.006,0.463C87.234,174.59,88.228,174.457,87.75,173.945 M88.9,164.07l0.01-0.33l-0.33-0.01l-0.01,0.33
		L88.9,164.07z M90.24,168.576c0.01-0.33-0.154-0.336-0.484-0.348l-0.012,0.33C89.91,168.564,90.074,168.57,90.24,168.576
		 M94.038,173.656l-0.01,0.33c-0.166-0.006-0.166-0.006-0.33-0.01l0.01-0.33C93.872,173.65,93.872,173.65,94.038,173.656
		 M95.688,173.709c-0.494-0.016-0.99-0.031-1.326,0.123c-0.143-0.666,0.99,0.033,0.688-0.803c0.164,0.004,0.324,0.176,0.654,0.186
		L95.688,173.709z M95.247,172.043c0.166,0.006,0.33,0.012,0.336-0.152C95.417,171.883,95.253,171.879,95.247,172.043
		 M98.312,174.291c0.15,0.502,0.98,0.363,1.637,0.549l0.016-0.494C99.308,174.158,98.819,173.979,98.312,174.291 M101.624,174.07
		l-0.01,0.33l-0.33-0.012l0.01-0.33L101.624,174.07z M102.956,173.783c-0.16-0.17-0.324-0.176-0.654-0.186
		C102.312,173.268,103.302,173.299,102.956,173.783 M103.956,173.484c-0.01,0.33-0.164-0.004-0.33-0.01
		C103.632,173.311,103.962,173.32,103.956,173.484 M105.651,172.219c0.164,0.006,0.33,0.012,0.336-0.154
		C105.821,172.061,105.657,172.055,105.651,172.219 M106.497,171.586c0.166,0.004,0.33,0.012,0.336-0.154
		C106.667,171.426,106.503,171.42,106.497,171.586 M107.726,174.436c-0.334,0.152-0.324-0.178-0.314-0.506
		C107.577,173.936,107.737,174.105,107.726,174.436 M111.093,172.563c-0.16-0.17-0.656-0.188-0.666,0.143
		C110.585,172.875,111.082,172.893,111.093,172.563 M112.568,172.941c-0.357,0.813,0.643,0.516,0.66,0.021
		C113.062,172.957,112.732,172.945,112.568,172.941 M115.808,174.865c-0.164-0.006-0.324-0.176-0.314-0.508
		C115.66,174.363,115.82,174.535,115.808,174.865 M116.544,172.576c-0.342,0.318,0.148,0.5,0.303,0.836
		C117.017,173.252,117.039,172.592,116.544,172.576 M119.185,162.584c-0.496-0.018-0.506,0.313-0.676,0.473
		C118.839,163.068,119.167,163.078,119.185,162.584 M120.65,173.371c-0.006,0.164-0.172,0.158-0.336,0.154
		C120.32,173.359,120.484,173.365,120.65,173.371 M121.607,174.395c0.01-0.33,0.342-0.32,0.836-0.305
		C122.267,174.414,121.943,174.238,121.607,174.395 M123.519,171.482c0.166,0.004,0.33,0.01,0.336-0.154
		C123.691,171.322,123.525,171.316,123.519,171.482 M125.646,167.09c0.166,0.006,0.33,0.012,0.336-0.152
		C125.816,166.932,125.652,166.924,125.646,167.09 M126.156,171.732c-0.021,0.662,0.797,0.854,0.984,0.199
		C126.644,171.914,126.314,171.904,126.156,171.732 M127.453,162.357c-0.006,0.166-0.006,0.166-0.17,0.16
		C127.287,162.354,127.287,162.354,127.453,162.357 M127.574,163.684c-0.346,0.484,0.48,0.512,0.49,0.182
		C127.9,163.859,127.906,163.695,127.574,163.684 M127.894,174.104c0.166,0.006,0.16,0.17,0.326,0.176
		C128.203,174.773,127.708,174.758,127.894,174.104 M130.578,162.791c0.166,0.004,0.33,0.012,0.335-0.154
		C130.748,162.631,130.584,162.625,130.578,162.791 M133.688,173.797c-0.01,0.33-0.164-0.006-0.33-0.01
		C133.363,173.621,133.693,173.631,133.688,173.797 M135.535,172.867c0.012-0.33,0.506-0.314,0.496,0.016L135.535,172.867z
		 M136.525,172.898c0.15,0.5-0.34,0.32-0.67,0.309c0.006-0.164,0.17-0.16,0.176-0.324L136.525,172.898z M137.809,174.098
		c0.176-0.324,0.352-0.65,0.363-0.98c-0.494-0.016-0.484-0.346-0.826-0.027C137.33,173.586,137.654,173.762,137.809,174.098
		 M139.598,174.982c-0.006,0.164-0.17,0.16-0.336,0.154C139.268,174.971,139.432,174.977,139.598,174.982 M140.316,163.109
		c0.164,0.006,0.33,0.012,0.336-0.154C140.486,162.949,140.322,162.945,140.316,163.109 M142.766,174.094
		c-0.33-0.01-0.49-0.182-0.654-0.186C142.121,173.578,143.111,173.609,142.766,174.094 M144.613,173.164
		c-0.006,0.164-0.34,0.318-0.346,0.484c-0.16-0.17-0.32-0.342-0.309-0.672C144.117,173.146,144.283,173.152,144.613,173.164
		 M145.764,163.287c-0.154-0.336,0.176-0.324,0.506-0.313C146.264,163.139,146.094,163.299,145.764,163.287 M146.918,173.404
		c-0.186,0.654-0.83,0.139-0.988-0.033C146.109,172.881,146.418,173.553,146.918,173.404 M146.318,171.566
		c-0.016,0.496,0.803,0.688,0.82,0.191C146.979,171.588,146.648,171.578,146.318,171.566 M147.008,165.643
		c-0.348,0.482,0.479,0.51,0.488,0.18C147.332,165.816,147.338,165.652,147.008,165.643 M147.045,164.486
		c0.166,0.006,0.33,0.01,0.336-0.154C147.217,164.326,147.051,164.32,147.045,164.486 M148.252,167.996
		c0.342-0.32-0.479-0.512-0.49-0.182c0.166,0.006,0.166,0.006,0.16,0.17L148.252,167.996z M147.627,171.939
		c0.166,0.006,0.33,0.012,0.336-0.154C147.799,171.781,147.633,171.775,147.627,171.939 M148.846,165.041
		c0.164,0.004,0.33,0.012,0.334-0.154C149.016,164.881,148.85,164.875,148.846,165.041 M148.596,172.633
		c0.496,0.016,0.662,0.021,0.645,0.518c-0.33-0.012-0.49-0.182-0.648-0.354L148.596,172.633z M149.467,166.219l0.012-0.33
		l-0.33-0.012l-0.012,0.33L149.467,166.219z M149.842,164.908c-0.008,0.164-0.342,0.32-0.018,0.494
		C149.83,165.238,150.164,165.084,149.842,164.908 M151.297,170.904l-0.66-0.023c-0.006,0.166-0.006,0.166-0.012,0.33
		C150.955,171.223,151.445,171.404,151.297,170.904 M151.678,164.309c-0.012,0.33-1,0.297-0.654-0.188
		C151.182,164.291,151.348,164.297,151.678,164.309 M151.156,165.117c-0.156-0.336,0.174-0.326,0.504-0.314
		C151.656,164.969,151.486,165.127,151.156,165.117 M151.025,169.078c0.166,0.004,0.33,0.01,0.336-0.156
		C151.195,168.918,151.031,168.912,151.025,169.078 M151.783,166.127c0.006-0.164,0.006-0.164,0.01-0.33l-0.328-0.01
		c-0.008,0.166-0.008,0.166-0.012,0.33L151.783,166.127z M151.398,167.768c-0.016,0.496,0.15,0.502,0.645,0.518
		C152.059,167.789,151.729,167.779,151.398,167.768 M151.418,172.23c0.176-0.326,1.156,0.037,1.656-0.111
		C152.723,172.768,151.902,172.576,151.418,172.23 M151.945,171.256l0.012-0.33c-0.166-0.006-0.166-0.006-0.33-0.012l-0.012,0.33
		C151.781,171.25,151.781,171.25,151.945,171.256 M152.111,171.262c0.164,0.006,0.33,0.01,0.336-0.154
		C152.281,171.102,152.115,171.096,152.111,171.262 M152.334,169.451c0.166,0.006,0.33,0.01,0.336-0.154
		C152.506,169.291,152.342,169.285,152.334,169.451 M153.055,167.656c0.336-0.154,1.311,0.373,1.166-0.291
		c-0.5,0.148-0.666,0.143-0.814-0.357c-0.496-0.016-0.826-0.027-0.842,0.469c0.166,0.004,0.33,0.01,0.496,0.016L153.055,167.656z
		 M154.029,168.186c-0.484-0.348-0.826-0.027-1.156-0.039C152.852,168.807,154.018,168.516,154.029,168.186 M153.225,167.498
		l-0.164-0.006C153.066,167.326,153.23,167.332,153.225,167.498 M153.631,165.197c0.012-0.33,0.672-0.309,0.83-0.137
		C154.451,165.391,153.795,165.203,153.631,165.197 M153.707,172.965c-0.006,0.164-0.17,0.16-0.336,0.154
		C153.377,172.955,153.541,172.959,153.707,172.965 M154.875,167.551l-0.016,0.494C155.344,168.393,155.375,167.402,154.875,167.551
		 M157.703,166.982c0.182-0.49-0.139-0.83-0.127-1.16c0.33,0.01,0.324,0.176,0.654,0.186c-0.17,0.16-0.188,0.656,0.143,0.666
		l-0.004,0.166C158.203,166.834,158.033,166.994,157.703,166.982 M158.369,166.84c0.34-0.318,0.324,0.176,0.824,0.027
		C159.178,167.361,158.529,167.01,158.369,166.84 M159.166,167.691c0.166,0.006,0.154,0.336,0.32,0.342
		c-0.012,0.33-0.666,0.143-0.83,0.137C158.666,167.84,159.156,168.021,159.166,167.691 M160.178,167.064
		c-0.494-0.018-0.824-0.027-0.984-0.197C159.199,166.701,160.359,166.574,160.178,167.064"/>
</g>
<rect id="_x3C_Slice_x3E_" x="-1.625" y="-2" fill="none" width="164" height="181"/>
</svg>
